<svg xmlns="http://www.w3.org/2000/svg" xmlns:xlink="http://www.w3.org/1999/xlink" viewBox="0 0 50 50" version="1.1" width="50" height="50">
<g id="surface1">
<path class="fill" d="M 25 3 C 12.863281 3 3 12.863281 3 25 C 3 37.136719 12.863281 47 25 47 C 37.136719 47 47 37.136719 47 25 C 47 12.863281 37.136719 3 25 3 Z M 25 5 C 36.058594 5 45 13.941406 45 25 C 45 36.058594 36.058594 45 25 45 C 13.941406 45 5 36.058594 5 25 C 5 13.941406 13.941406 5 25 5 Z M 34.0625 14.46875 L 23.125 31.46875 L 15.78125 24.84375 L 14.4375 26.34375 L 22.625 33.75 L 23.5 34.53125 L 24.125 33.53125 L 35.75 15.53125 Z "/>
</g>
</svg>
